<svg width="576" height="131" viewBox="0 0 576 131" fill="none" xmlns="http://www.w3.org/2000/svg">
<path d="M117.504 27.1172L117.268 26.9707L91.5156 11.0312L91.0518 10.7441L90.8057 11.2314L66.1729 60.0449L65.8076 60.7695H90.1992L33.4854 130.335L0.5 108.812V22.6807L33.7412 0.5H73.8105L35.209 39.1377V13.0029L34.4287 13.5332L13.1553 27.9775L12.9355 28.127V102.376L13.1553 102.524L38.9082 119.958L39.377 120.275L39.6338 119.771L63.1465 73.4473L63.5156 72.7207H40.2061L95.8477 0.666016L130.5 22.6895V108.814L97.8184 130.5H58.2998L97.4697 90.875V117.541L98.2656 116.958L117.3 103.012L117.504 102.862V27.1172Z" fill="black" stroke="black"/>
<mask id="path-2-outside-1_4_7" maskUnits="userSpaceOnUse" x="146" y="41.5" width="416" height="47" fill="black">
<rect fill="white" x="146" y="41.5" width="416" height="47"/>
<path d="M158.63 42.7H175.718V87.5H167.974V68.364H155.174V87.5H147.558V54.156L158.63 42.7ZM155.174 56.396V61.132H167.974V49.932H161.446L155.174 56.396ZM184.525 42.7H208.013L215.501 53.644V61.132L209.613 67.212L215.501 75.852V87.5H207.757V77.196L201.933 68.684H195.661L192.269 66.572V87.5H184.525V42.7ZM192.269 49.932V61.452H205.261L207.757 58.892V55.18L204.109 49.932H192.269ZM245.044 42.7H255.347L237.876 60.748L255.668 87.5H247.156L232.436 65.996L228.916 69.452V87.5H221.172V42.7H228.916V59.02L245.044 42.7ZM261.275 42.7H292.251V49.932H280.603V80.268H292.251V87.5H261.275V80.268H272.859V49.932H261.275V42.7ZM298.434 42.7H331.842V49.932H314.818L319.042 53.708V87.5H311.298V55.5L309.442 49.932H298.434V42.7ZM343.337 42.7H368.297V49.932H346.281L345.129 51.212V61.26H359.913V68.492H345.129V77.452L346.985 80.268H368.297V87.5H343.145L337.385 78.924V48.78L343.337 42.7ZM383.248 42.7H402.448L407.632 50.508L402.512 55.884L398.608 49.996H386.192L385.04 51.276V77.452L386.896 80.268H399.184L403.728 75.724L407.76 81.74L402.256 87.5H383.056L377.296 78.924V48.716L383.248 42.7ZM413.559 42.7H446.967V49.932H429.943L434.167 53.708V87.5H426.423V55.5L424.567 49.932H413.559V42.7ZM480.862 71.884H456.414V64.716H480.862V71.884ZM514.757 42.7H522.501V87.5H514.757V85.324L511.237 87.5H497.349L491.525 78.924V42.7H499.269V77.452L501.125 80.268H513.477L514.757 78.988V42.7ZM529.9 42.7H560.876V49.932H549.228V80.268H560.876V87.5H529.9V80.268H541.484V49.932H529.9V42.7Z"/>
</mask>
<path d="M158.63 42.7H175.718V87.5H167.974V68.364H155.174V87.5H147.558V54.156L158.63 42.7ZM155.174 56.396V61.132H167.974V49.932H161.446L155.174 56.396ZM184.525 42.7H208.013L215.501 53.644V61.132L209.613 67.212L215.501 75.852V87.5H207.757V77.196L201.933 68.684H195.661L192.269 66.572V87.5H184.525V42.7ZM192.269 49.932V61.452H205.261L207.757 58.892V55.18L204.109 49.932H192.269ZM245.044 42.7H255.347L237.876 60.748L255.668 87.5H247.156L232.436 65.996L228.916 69.452V87.5H221.172V42.7H228.916V59.02L245.044 42.7ZM261.275 42.7H292.251V49.932H280.603V80.268H292.251V87.5H261.275V80.268H272.859V49.932H261.275V42.7ZM298.434 42.7H331.842V49.932H314.818L319.042 53.708V87.5H311.298V55.5L309.442 49.932H298.434V42.7ZM343.337 42.7H368.297V49.932H346.281L345.129 51.212V61.26H359.913V68.492H345.129V77.452L346.985 80.268H368.297V87.5H343.145L337.385 78.924V48.78L343.337 42.7ZM383.248 42.7H402.448L407.632 50.508L402.512 55.884L398.608 49.996H386.192L385.04 51.276V77.452L386.896 80.268H399.184L403.728 75.724L407.76 81.74L402.256 87.5H383.056L377.296 78.924V48.716L383.248 42.7ZM413.559 42.7H446.967V49.932H429.943L434.167 53.708V87.5H426.423V55.5L424.567 49.932H413.559V42.7ZM480.862 71.884H456.414V64.716H480.862V71.884ZM514.757 42.7H522.501V87.5H514.757V85.324L511.237 87.5H497.349L491.525 78.924V42.7H499.269V77.452L501.125 80.268H513.477L514.757 78.988V42.7ZM529.9 42.7H560.876V49.932H549.228V80.268H560.876V87.5H529.9V80.268H541.484V49.932H529.9V42.7Z" fill="black"/>
<path d="M158.63 42.7V41.7H158.205L157.91 42.005L158.63 42.7ZM175.718 42.7H176.718V41.7H175.718V42.7ZM175.718 87.5V88.5H176.718V87.5H175.718ZM167.974 87.5H166.974V88.5H167.974V87.5ZM167.974 68.364H168.974V67.364H167.974V68.364ZM155.174 68.364V67.364H154.174V68.364H155.174ZM155.174 87.5V88.5H156.174V87.5H155.174ZM147.558 87.5H146.558V88.5H147.558V87.5ZM147.558 54.156L146.838 53.461L146.558 53.7517V54.156H147.558ZM155.174 56.396L154.456 55.6996L154.174 55.9906V56.396H155.174ZM155.174 61.132H154.174V62.132H155.174V61.132ZM167.974 61.132V62.132H168.974V61.132H167.974ZM167.974 49.932H168.974V48.932H167.974V49.932ZM161.446 49.932V48.932H161.022L160.728 49.2356L161.446 49.932ZM158.63 42.7V43.7H175.718V42.7V41.7H158.63V42.7ZM175.718 42.7H174.718V87.5H175.718H176.718V42.7H175.718ZM175.718 87.5V86.5H167.974V87.5V88.5H175.718V87.5ZM167.974 87.5H168.974V68.364H167.974H166.974V87.5H167.974ZM167.974 68.364V67.364H155.174V68.364V69.364H167.974V68.364ZM155.174 68.364H154.174V87.5H155.174H156.174V68.364H155.174ZM155.174 87.5V86.5H147.558V87.5V88.5H155.174V87.5ZM147.558 87.5H148.558V54.156H147.558H146.558V87.5H147.558ZM147.558 54.156L148.277 54.851L159.349 43.395L158.63 42.7L157.91 42.005L146.838 53.461L147.558 54.156ZM155.174 56.396H154.174V61.132H155.174H156.174V56.396H155.174ZM155.174 61.132V62.132H167.974V61.132V60.132H155.174V61.132ZM167.974 61.132H168.974V49.932H167.974H166.974V61.132H167.974ZM167.974 49.932V48.932H161.446V49.932V50.932H167.974V49.932ZM161.446 49.932L160.728 49.2356L154.456 55.6996L155.174 56.396L155.891 57.0924L162.163 50.6284L161.446 49.932ZM184.525 42.7V41.7H183.525V42.7H184.525ZM208.012 42.7L208.838 42.1353L208.54 41.7H208.012V42.7ZM215.501 53.644H216.501V53.3346L216.326 53.0793L215.501 53.644ZM215.501 61.132L216.219 61.8277L216.501 61.5368V61.132H215.501ZM209.613 67.212L208.894 66.5163L208.327 67.1017L208.786 67.7751L209.613 67.212ZM215.501 75.852H216.501V75.5437L216.327 75.2889L215.501 75.852ZM215.501 87.5V88.5H216.501V87.5H215.501ZM207.757 87.5H206.757V88.5H207.757V87.5ZM207.757 77.196H208.757V76.8866L208.582 76.6313L207.757 77.196ZM201.933 68.684L202.758 68.1193L202.46 67.684H201.933V68.684ZM195.66 68.684L195.132 69.5329L195.375 69.684H195.66V68.684ZM192.269 66.572L192.797 65.7231L191.269 64.7714V66.572H192.269ZM192.269 87.5V88.5H193.269V87.5H192.269ZM184.525 87.5H183.525V88.5H184.525V87.5ZM192.269 49.932V48.932H191.269V49.932H192.269ZM192.269 61.452H191.269V62.452H192.269V61.452ZM205.26 61.452V62.452H205.682L205.977 62.1501L205.26 61.452ZM207.757 58.892L208.473 59.5901L208.757 59.2988V58.892H207.757ZM207.757 55.18H208.757V54.8666L208.578 54.6092L207.757 55.18ZM204.109 49.932L204.93 49.3612L204.631 48.932H204.109V49.932ZM184.525 42.7V43.7H208.012V42.7V41.7H184.525V42.7ZM208.012 42.7L207.187 43.2647L214.675 54.2087L215.501 53.644L216.326 53.0793L208.838 42.1353L208.012 42.7ZM215.501 53.644H214.501V61.132H215.501H216.501V53.644H215.501ZM215.501 61.132L214.782 60.4363L208.894 66.5163L209.613 67.212L210.331 67.9077L216.219 61.8277L215.501 61.132ZM209.613 67.212L208.786 67.7751L214.674 76.4151L215.501 75.852L216.327 75.2889L210.439 66.6489L209.613 67.212ZM215.501 75.852H214.501V87.5H215.501H216.501V75.852H215.501ZM215.501 87.5V86.5H207.757V87.5V88.5H215.501V87.5ZM207.757 87.5H208.757V77.196H207.757H206.757V87.5H207.757ZM207.757 77.196L208.582 76.6313L202.758 68.1193L201.933 68.684L201.107 69.2487L206.931 77.7607L207.757 77.196ZM201.933 68.684V67.684H195.66V68.684V69.684H201.933V68.684ZM195.66 68.684L196.189 67.8351L192.797 65.7231L192.269 66.572L191.74 67.4209L195.132 69.5329L195.66 68.684ZM192.269 66.572H191.269V87.5H192.269H193.269V66.572H192.269ZM192.269 87.5V86.5H184.525V87.5V88.5H192.269V87.5ZM184.525 87.5H185.524V42.7H184.525H183.525V87.5H184.525ZM192.269 49.932H191.269V61.452H192.269H193.269V49.932H192.269ZM192.269 61.452V62.452H205.26V61.452V60.452H192.269V61.452ZM205.26 61.452L205.977 62.1501L208.473 59.5901L207.757 58.892L207.041 58.1939L204.545 60.7539L205.26 61.452ZM207.757 58.892H208.757V55.18H207.757H206.757V58.892H207.757ZM207.757 55.18L208.578 54.6092L204.93 49.3612L204.109 49.932L203.287 50.5028L206.935 55.7508L207.757 55.18ZM204.109 49.932V48.932H192.269V49.932V50.932H204.109V49.932ZM245.044 42.7V41.7H244.626L244.332 41.9971L245.044 42.7ZM255.348 42.7L256.066 43.3955L257.707 41.7H255.348V42.7ZM237.876 60.748L237.157 60.0525L236.597 60.6311L237.043 61.3018L237.876 60.748ZM255.668 87.5V88.5H257.534L256.5 86.9462L255.668 87.5ZM247.156 87.5L246.33 88.0649L246.628 88.5H247.156V87.5ZM232.436 65.996L233.261 65.4311L232.587 64.4463L231.735 65.2824L232.436 65.996ZM228.915 69.452L228.215 68.7384L227.915 69.0324V69.452H228.915ZM228.915 87.5V88.5H229.915V87.5H228.915ZM221.172 87.5H220.172V88.5H221.172V87.5ZM221.172 42.7V41.7H220.172V42.7H221.172ZM228.915 42.7H229.915V41.7H228.915V42.7ZM228.915 59.02H227.915V61.4546L229.627 59.7229L228.915 59.02ZM245.044 42.7V43.7H255.348V42.7V41.7H245.044V42.7ZM255.348 42.7L254.629 42.0044L237.157 60.0525L237.876 60.748L238.594 61.4436L256.066 43.3955L255.348 42.7ZM237.876 60.748L237.043 61.3018L254.835 88.0538L255.668 87.5L256.5 86.9462L238.708 60.1942L237.876 60.748ZM255.668 87.5V86.5H247.156V87.5V88.5H255.668V87.5ZM247.156 87.5L247.981 86.9351L233.261 65.4311L232.436 65.996L231.61 66.5609L246.33 88.0649L247.156 87.5ZM232.436 65.996L231.735 65.2824L228.215 68.7384L228.915 69.452L229.616 70.1656L233.136 66.7096L232.436 65.996ZM228.915 69.452H227.915V87.5H228.915H229.915V69.452H228.915ZM228.915 87.5V86.5H221.172V87.5V88.5H228.915V87.5ZM221.172 87.5H222.172V42.7H221.172H220.172V87.5H221.172ZM221.172 42.7V43.7H228.915V42.7V41.7H221.172V42.7ZM228.915 42.7H227.915V59.02H228.915H229.915V42.7H228.915ZM228.915 59.02L229.627 59.7229L245.755 43.4029L245.044 42.7L244.332 41.9971L228.204 58.3171L228.915 59.02ZM261.275 42.7V41.7H260.275V42.7H261.275ZM292.251 42.7H293.251V41.7H292.251V42.7ZM292.251 49.932V50.932H293.251V49.932H292.251ZM280.603 49.932V48.932H279.603V49.932H280.603ZM280.603 80.268H279.603V81.268H280.603V80.268ZM292.251 80.268H293.251V79.268H292.251V80.268ZM292.251 87.5V88.5H293.251V87.5H292.251ZM261.275 87.5H260.275V88.5H261.275V87.5ZM261.275 80.268V79.268H260.275V80.268H261.275ZM272.859 80.268V81.268H273.859V80.268H272.859ZM272.859 49.932H273.859V48.932H272.859V49.932ZM261.275 49.932H260.275V50.932H261.275V49.932ZM261.275 42.7V43.7H292.251V42.7V41.7H261.275V42.7ZM292.251 42.7H291.251V49.932H292.251H293.251V42.7H292.251ZM292.251 49.932V48.932H280.603V49.932V50.932H292.251V49.932ZM280.603 49.932H279.603V80.268H280.603H281.603V49.932H280.603ZM280.603 80.268V81.268H292.251V80.268V79.268H280.603V80.268ZM292.251 80.268H291.251V87.5H292.251H293.251V80.268H292.251ZM292.251 87.5V86.5H261.275V87.5V88.5H292.251V87.5ZM261.275 87.5H262.275V80.268H261.275H260.275V87.5H261.275ZM261.275 80.268V81.268H272.859V80.268V79.268H261.275V80.268ZM272.859 80.268H273.859V49.932H272.859H271.859V80.268H272.859ZM272.859 49.932V48.932H261.275V49.932V50.932H272.859V49.932ZM261.275 49.932H262.275V42.7H261.275H260.275V49.932H261.275ZM298.434 42.7V41.7H297.434V42.7H298.434ZM331.842 42.7H332.842V41.7H331.842V42.7ZM331.842 49.932V50.932H332.842V49.932H331.842ZM314.818 49.932V48.932H312.198L314.151 50.6775L314.818 49.932ZM319.042 53.708H320.042V53.2606L319.708 52.9625L319.042 53.708ZM319.042 87.5V88.5H320.042V87.5H319.042ZM311.298 87.5H310.298V88.5H311.298V87.5ZM311.298 55.5H312.298V55.3377L312.246 55.1838L311.298 55.5ZM309.441 49.932L310.39 49.6158L310.162 48.932H309.441V49.932ZM298.434 49.932H297.434V50.932H298.434V49.932ZM298.434 42.7V43.7H331.842V42.7V41.7H298.434V42.7ZM331.842 42.7H330.842V49.932H331.842H332.842V42.7H331.842ZM331.842 49.932V48.932H314.818V49.932V50.932H331.842V49.932ZM314.818 49.932L314.151 50.6775L318.375 54.4535L319.042 53.708L319.708 52.9625L315.484 49.1865L314.818 49.932ZM319.042 53.708H318.042V87.5H319.042H320.042V53.708H319.042ZM319.042 87.5V86.5H311.298V87.5V88.5H319.042V87.5ZM311.298 87.5H312.298V55.5H311.298H310.298V87.5H311.298ZM311.298 55.5L312.246 55.1838L310.39 49.6158L309.441 49.932L308.493 50.2482L310.349 55.8162L311.298 55.5ZM309.441 49.932V48.932H298.434V49.932V50.932H309.441V49.932ZM298.434 49.932H299.434V42.7H298.434H297.434V49.932H298.434ZM343.337 42.7V41.7H342.916L342.622 42.0005L343.337 42.7ZM368.297 42.7H369.297V41.7H368.297V42.7ZM368.297 49.932V50.932H369.297V49.932H368.297ZM346.281 49.932V48.932H345.835L345.537 49.263L346.281 49.932ZM345.128 51.212L344.385 50.543L344.128 50.8283V51.212H345.128ZM345.128 61.26H344.128V62.26H345.128V61.26ZM359.913 61.26H360.913V60.26H359.913V61.26ZM359.913 68.492V69.492H360.913V68.492H359.913ZM345.128 68.492V67.492H344.128V68.492H345.128ZM345.128 77.452H344.128V77.7519L344.294 78.0023L345.128 77.452ZM346.984 80.268L346.15 80.8183L346.446 81.268H346.984V80.268ZM368.297 80.268H369.297V79.268H368.297V80.268ZM368.297 87.5V88.5H369.297V87.5H368.297ZM343.145 87.5L342.314 88.0576L342.612 88.5H343.145V87.5ZM337.385 78.924H336.385V79.2287L336.554 79.4816L337.385 78.924ZM337.385 48.78L336.67 48.0805L336.385 48.372V48.78H337.385ZM343.337 42.7V43.7H368.297V42.7V41.7H343.337V42.7ZM368.297 42.7H367.297V49.932H368.297H369.297V42.7H368.297ZM368.297 49.932V48.932H346.281V49.932V50.932H368.297V49.932ZM346.281 49.932L345.537 49.263L344.385 50.543L345.128 51.212L345.872 51.881L347.024 50.601L346.281 49.932ZM345.128 51.212H344.128V61.26H345.128H346.128V51.212H345.128ZM345.128 61.26V62.26H359.913V61.26V60.26H345.128V61.26ZM359.913 61.26H358.913V68.492H359.913H360.913V61.26H359.913ZM359.913 68.492V67.492H345.128V68.492V69.492H359.913V68.492ZM345.128 68.492H344.128V77.452H345.128H346.128V68.492H345.128ZM345.128 77.452L344.294 78.0023L346.15 80.8183L346.984 80.268L347.819 79.7177L345.963 76.9017L345.128 77.452ZM346.984 80.268V81.268H368.297V80.268V79.268H346.984V80.268ZM368.297 80.268H367.297V87.5H368.297H369.297V80.268H368.297ZM368.297 87.5V86.5H343.145V87.5V88.5H368.297V87.5ZM343.145 87.5L343.975 86.9424L338.215 78.3664L337.385 78.924L336.554 79.4816L342.314 88.0576L343.145 87.5ZM337.385 78.924H338.385V48.78H337.385H336.385V78.924H337.385ZM337.385 48.78L338.099 49.4795L344.051 43.3995L343.337 42.7L342.622 42.0005L336.67 48.0805L337.385 48.78ZM383.247 42.7V41.7H382.83L382.537 41.9967L383.247 42.7ZM402.448 42.7L403.281 42.1469L402.984 41.7H402.448V42.7ZM407.632 50.508L408.356 51.1977L408.906 50.6197L408.465 49.9549L407.632 50.508ZM402.512 55.884L401.678 56.4366L402.371 57.4816L403.236 56.5737L402.512 55.884ZM398.608 49.996L399.441 49.4434L399.144 48.996H398.608V49.996ZM386.191 49.996V48.996H385.746L385.448 49.327L386.191 49.996ZM385.04 51.276L384.296 50.607L384.04 50.8923V51.276H385.04ZM385.04 77.452H384.04V77.7519L384.205 78.0023L385.04 77.452ZM386.896 80.268L386.061 80.8183L386.357 81.268H386.896V80.268ZM399.184 80.268V81.268H399.598L399.891 80.9751L399.184 80.268ZM403.728 75.724L404.558 75.1673L403.881 74.1565L403.02 75.0169L403.728 75.724ZM407.759 81.74L408.482 82.4309L409.037 81.8503L408.59 81.1833L407.759 81.74ZM402.255 87.5V88.5H402.683L402.978 88.1909L402.255 87.5ZM383.055 87.5L382.225 88.0576L382.523 88.5H383.055V87.5ZM377.296 78.924H376.296V79.2287L376.465 79.4816L377.296 78.924ZM377.296 48.716L376.585 48.0127L376.296 48.3049V48.716H377.296ZM383.247 42.7V43.7H402.448V42.7V41.7H383.247V42.7ZM402.448 42.7L401.614 43.2531L406.798 51.0611L407.632 50.508L408.465 49.9549L403.281 42.1469L402.448 42.7ZM407.632 50.508L406.907 49.8183L401.787 55.1943L402.512 55.884L403.236 56.5737L408.356 51.1977L407.632 50.508ZM402.512 55.884L403.345 55.3314L399.441 49.4434L398.608 49.996L397.774 50.5486L401.678 56.4366L402.512 55.884ZM398.608 49.996V48.996H386.191V49.996V50.996H398.608V49.996ZM386.191 49.996L385.448 49.327L384.296 50.607L385.04 51.276L385.783 51.945L386.935 50.665L386.191 49.996ZM385.04 51.276H384.04V77.452H385.04H386.04V51.276H385.04ZM385.04 77.452L384.205 78.0023L386.061 80.8183L386.896 80.268L387.73 79.7177L385.874 76.9017L385.04 77.452ZM386.896 80.268V81.268H399.184V80.268V79.268H386.896V80.268ZM399.184 80.268L399.891 80.9751L404.435 76.4311L403.728 75.724L403.02 75.0169L398.476 79.5609L399.184 80.268ZM403.728 75.724L402.897 76.2807L406.929 82.2967L407.759 81.74L408.59 81.1833L404.558 75.1673L403.728 75.724ZM407.759 81.74L407.036 81.0491L401.533 86.8091L402.255 87.5L402.978 88.1909L408.482 82.4309L407.759 81.74ZM402.255 87.5V86.5H383.055V87.5V88.5H402.255V87.5ZM383.055 87.5L383.886 86.9424L378.126 78.3664L377.296 78.924L376.465 79.4816L382.225 88.0576L383.055 87.5ZM377.296 78.924H378.296V48.716H377.296H376.296V78.924H377.296ZM377.296 48.716L378.006 49.4193L383.958 43.4033L383.247 42.7L382.537 41.9967L376.585 48.0127L377.296 48.716ZM413.559 42.7V41.7H412.559V42.7H413.559ZM446.966 42.7H447.966V41.7H446.966V42.7ZM446.966 49.932V50.932H447.966V49.932H446.966ZM429.943 49.932V48.932H427.323L429.276 50.6775L429.943 49.932ZM434.167 53.708H435.167V53.2606L434.833 52.9625L434.167 53.708ZM434.167 87.5V88.5H435.167V87.5H434.167ZM426.422 87.5H425.422V88.5H426.422V87.5ZM426.422 55.5H427.422V55.3377L427.371 55.1838L426.422 55.5ZM424.566 49.932L425.515 49.6158L425.287 48.932H424.566V49.932ZM413.559 49.932H412.559V50.932H413.559V49.932ZM413.559 42.7V43.7H446.966V42.7V41.7H413.559V42.7ZM446.966 42.7H445.966V49.932H446.966H447.966V42.7H446.966ZM446.966 49.932V48.932H429.943V49.932V50.932H446.966V49.932ZM429.943 49.932L429.276 50.6775L433.5 54.4535L434.167 53.708L434.833 52.9625L430.609 49.1865L429.943 49.932ZM434.167 53.708H433.167V87.5H434.167H435.167V53.708H434.167ZM434.167 87.5V86.5H426.422V87.5V88.5H434.167V87.5ZM426.422 87.5H427.422V55.5H426.422H425.422V87.5H426.422ZM426.422 55.5L427.371 55.1838L425.515 49.6158L424.566 49.932L423.618 50.2482L425.474 55.8162L426.422 55.5ZM424.566 49.932V48.932H413.559V49.932V50.932H424.566V49.932ZM413.559 49.932H414.559V42.7H413.559H412.559V49.932H413.559ZM480.862 71.884V72.884H481.862V71.884H480.862ZM456.414 71.884H455.414V72.884H456.414V71.884ZM456.414 64.716V63.716H455.414V64.716H456.414ZM480.862 64.716H481.862V63.716H480.862V64.716ZM480.862 71.884V70.884H456.414V71.884V72.884H480.862V71.884ZM456.414 71.884H457.414V64.716H456.414H455.414V71.884H456.414ZM456.414 64.716V65.716H480.862V64.716V63.716H456.414V64.716ZM480.862 64.716H479.862V71.884H480.862H481.862V64.716H480.862ZM514.757 42.7V41.7H513.757V42.7H514.757ZM522.5 42.7H523.5V41.7H522.5V42.7ZM522.5 87.5V88.5H523.5V87.5H522.5ZM514.757 87.5H513.757V88.5H514.757V87.5ZM514.757 85.324H515.757V83.5302L514.231 84.4734L514.757 85.324ZM511.237 87.5V88.5H511.521L511.762 88.3506L511.237 87.5ZM497.349 87.5L496.521 88.0618L496.819 88.5H497.349V87.5ZM491.525 78.924H490.525V79.2315L490.697 79.4858L491.525 78.924ZM491.525 42.7V41.7H490.525V42.7H491.525ZM499.268 42.7H500.268V41.7H499.268V42.7ZM499.268 77.452H498.268V77.7519L498.434 78.0023L499.268 77.452ZM501.125 80.268L500.29 80.8183L500.586 81.268H501.125V80.268ZM513.477 80.268V81.268H513.891L514.184 80.9751L513.477 80.268ZM514.757 78.988L515.464 79.6951L515.757 79.4022V78.988H514.757ZM514.757 42.7V43.7H522.5V42.7V41.7H514.757V42.7ZM522.5 42.7H521.5V87.5H522.5H523.5V42.7H522.5ZM522.5 87.5V86.5H514.757V87.5V88.5H522.5V87.5ZM514.757 87.5H515.757V85.324H514.757H513.757V87.5H514.757ZM514.757 85.324L514.231 84.4734L510.711 86.6494L511.237 87.5L511.762 88.3506L515.282 86.1746L514.757 85.324ZM511.237 87.5V86.5H497.349V87.5V88.5H511.237V87.5ZM497.349 87.5L498.176 86.9382L492.352 78.3622L491.525 78.924L490.697 79.4858L496.521 88.0618L497.349 87.5ZM491.525 78.924H492.525V42.7H491.525H490.525V78.924H491.525ZM491.525 42.7V43.7H499.268V42.7V41.7H491.525V42.7ZM499.268 42.7H498.268V77.452H499.268H500.268V42.7H499.268ZM499.268 77.452L498.434 78.0023L500.29 80.8183L501.125 80.268L501.959 79.7177L500.103 76.9017L499.268 77.452ZM501.125 80.268V81.268H513.477V80.268V79.268H501.125V80.268ZM513.477 80.268L514.184 80.9751L515.464 79.6951L514.757 78.988L514.049 78.2809L512.769 79.5609L513.477 80.268ZM514.757 78.988H515.757V42.7H514.757H513.757V78.988H514.757ZM529.9 42.7V41.7H528.9V42.7H529.9ZM560.875 42.7H561.875V41.7H560.875V42.7ZM560.875 49.932V50.932H561.875V49.932H560.875ZM549.228 49.932V48.932H548.228V49.932H549.228ZM549.228 80.268H548.228V81.268H549.228V80.268ZM560.875 80.268H561.875V79.268H560.875V80.268ZM560.875 87.5V88.5H561.875V87.5H560.875ZM529.9 87.5H528.9V88.5H529.9V87.5ZM529.9 80.268V79.268H528.9V80.268H529.9ZM541.483 80.268V81.268H542.483V80.268H541.483ZM541.483 49.932H542.483V48.932H541.483V49.932ZM529.9 49.932H528.9V50.932H529.9V49.932ZM529.9 42.7V43.7H560.875V42.7V41.7H529.9V42.7ZM560.875 42.7H559.875V49.932H560.875H561.875V42.7H560.875ZM560.875 49.932V48.932H549.228V49.932V50.932H560.875V49.932ZM549.228 49.932H548.228V80.268H549.228H550.228V49.932H549.228ZM549.228 80.268V81.268H560.875V80.268V79.268H549.228V80.268ZM560.875 80.268H559.875V87.5H560.875H561.875V80.268H560.875ZM560.875 87.5V86.5H529.9V87.5V88.5H560.875V87.5ZM529.9 87.5H530.9V80.268H529.9H528.9V87.5H529.9ZM529.9 80.268V81.268H541.483V80.268V79.268H529.9V80.268ZM541.483 80.268H542.483V49.932H541.483H540.483V80.268H541.483ZM541.483 49.932V48.932H529.9V49.932V50.932H541.483V49.932ZM529.9 49.932H530.9V42.7H529.9H528.9V49.932H529.9Z" fill="black" mask="url(#path-2-outside-1_4_7)"/>
</svg>
